<svg width="149" height="149" viewBox="0 0 149 149" fill="none" xmlns="http://www.w3.org/2000/svg">
<g clip-path="url(#clip0_8_95)">
<path d="M95.054 94.0821C92.3081 92.4967 89.1538 91.7612 85.9899 91.9685C82.826 92.1757 79.7946 93.3165 77.279 95.2465C74.7634 97.1765 72.8765 99.8091 71.857 102.811C70.8375 105.814 70.7312 109.051 71.5514 112.114C72.3716 115.176 74.0815 117.927 76.465 120.018C78.8485 122.109 81.7984 123.446 84.9419 123.861C88.0854 124.275 91.2811 123.749 94.1252 122.347C96.9692 120.945 99.3338 118.732 100.92 115.986C103.033 112.3 103.602 107.927 102.502 103.823C101.402 99.7183 98.7273 96.218 95.054 94.0821Z" stroke="#343A46" stroke-opacity="0.4" stroke-width="6" stroke-linecap="round" stroke-linejoin="round"/>
<path d="M46.8526 65.8995C44.1067 64.3142 40.9524 63.5786 37.7885 63.7859C34.6246 63.9932 31.5932 65.1339 29.0776 67.0639C26.562 68.9939 24.6751 71.6265 23.6556 74.6288C22.6361 77.6311 22.5298 80.8683 23.35 83.9311C24.1702 86.9938 25.8801 89.7446 28.2636 91.8356C30.6471 93.9266 33.597 95.2639 36.7405 95.6784C39.884 96.0929 43.0798 95.5661 45.9238 94.1644C48.7678 92.7627 51.1324 90.5493 52.7185 87.8038C54.8318 84.1174 55.4006 79.7446 54.3009 75.6401C53.2011 71.5357 50.522 68.0332 46.8487 65.8973L46.8526 65.8995Z" stroke="#343A46" stroke-opacity="0.4" stroke-width="6" stroke-linecap="round" stroke-linejoin="round"/>
<path d="M63.3385 93.3117L72.4101 77.5993L65.1476 63.173L89.0478 55.5334L88.761 72.9083L98.993 78.8158" stroke="#343A46" stroke-opacity="0.4" stroke-width="6" stroke-linecap="round" stroke-linejoin="round"/>
<path d="M98.6619 59.1352C99.4306 59.5824 100.28 59.8729 101.162 59.9897C102.044 60.1065 102.94 60.0475 103.798 59.8158C104.657 59.5842 105.461 59.1847 106.164 58.6404C106.868 58.096 107.456 57.4177 107.896 56.6445C108.347 55.8832 108.642 55.0395 108.763 54.1629C108.884 53.2862 108.829 52.3941 108.601 51.539C108.373 50.6838 107.977 49.8827 107.436 49.1826C106.894 48.4825 106.219 47.8975 105.448 47.4618C104.682 47.0159 103.835 46.7253 102.957 46.6067C102.078 46.488 101.185 46.5436 100.328 46.7702C99.4704 46.9968 98.6663 47.3901 97.9611 47.9274C97.2559 48.4648 96.6635 49.1358 96.2176 49.9022C95.7717 50.6685 95.4812 51.5152 95.3625 52.3938C95.2439 53.2724 95.2995 54.1658 95.5261 55.023C95.7527 55.8801 96.1459 56.6843 96.6833 57.3894C97.2207 58.0946 97.8917 58.6871 98.658 59.1329L98.6619 59.1352Z" fill="#343A46" fill-opacity="0.4"/>
</g>
<defs>
<clipPath id="clip0_8_95">
<rect width="108.022" height="108.022" fill="white" transform="translate(54.5402 0.529358) rotate(30)"/>
</clipPath>
</defs>
</svg>
