<svg width="32" height="32" viewBox="0 0 32 32" fill="none" xmlns="http://www.w3.org/2000/svg">
<path d="M16 0C7.17785 0 0 7.17785 0 16C0 24.8222 7.17785 32 16 32C24.8222 32 32 24.8222 32 16C32 7.17785 24.8222 0 16 0ZM16.1543 7.38462C17.6231 7.38462 19.0319 7.96813 20.0705 9.00679C21.1092 10.0455 21.6927 11.4542 21.6927 12.9231C21.6927 14.392 21.1092 15.8007 20.0705 16.8394C19.0319 17.878 17.6231 18.4615 16.1543 18.4615C14.6854 18.4615 13.2766 17.878 12.238 16.8394C11.1993 15.8007 10.6158 14.392 10.6158 12.9231C10.6158 11.4542 11.1993 10.0455 12.238 9.00679C13.2766 7.96813 14.6854 7.38462 16.1543 7.38462ZM16 29.5385C14.1328 29.5391 12.2857 29.1525 10.5755 28.4032C8.86519 27.6538 7.3289 26.558 6.06359 25.1848C6.74297 21.6615 12.8492 20.9231 16 20.9231C19.1508 20.9231 25.2554 21.6615 25.9364 25.1832C24.6714 26.5568 23.1352 27.653 21.4249 28.4027C19.7146 29.1523 17.8674 29.5391 16 29.5385Z" fill="black"/>
</svg>
