<svg width="40" height="40" viewBox="0 0 40 40" fill="none" xmlns="http://www.w3.org/2000/svg">
<path d="M20.25 4C11.29 4 4 11.29 4 20.25C4 29.21 11.29 36.5 20.25 36.5C29.21 36.5 36.5 29.21 36.5 20.25C36.5 11.29 29.21 4 20.25 4ZM20.4067 11.5C21.8985 11.5 23.3292 12.0926 24.3841 13.1475C25.439 14.2024 26.0317 15.6332 26.0317 17.125C26.0317 18.6168 25.439 20.0476 24.3841 21.1025C23.3292 22.1574 21.8985 22.75 20.4067 22.75C18.9148 22.75 17.4841 22.1574 16.4292 21.1025C15.3743 20.0476 14.7817 18.6168 14.7817 17.125C14.7817 15.6332 15.3743 14.2024 16.4292 13.1475C17.4841 12.0926 18.9148 11.5 20.4067 11.5ZM20.25 34C18.3536 34.0006 16.4777 33.608 14.7407 32.847C13.0037 32.0859 11.4434 30.9729 10.1583 29.5783C10.8483 26 17.05 25.25 20.25 25.25C23.45 25.25 29.65 26 30.3417 29.5767C29.0569 30.9717 27.4967 32.0851 25.7596 32.8465C24.0226 33.6078 22.1466 34.0006 20.25 34Z" fill="black"/>
</svg>
