<svg width="24" height="24" viewBox="0 0 24 24" fill="none" xmlns="http://www.w3.org/2000/svg">
<path d="M20.9931 12.8898C18.8815 10.3021 11.9193 11.656 6.49442 13.3888C6.42562 13.4126 6.35499 13.3658 6.35683 13.2998C6.36508 13.0255 6.36967 12.7494 6.36967 12.4697C6.36967 10.9506 6.24492 9.64348 6.02293 8.35652C6.01468 8.31066 6.04495 8.26754 6.09448 8.2547C10.5846 6.61642 19.6291 6.11008 21.1766 12.8155C21.2023 12.9155 21.0555 12.9732 20.9913 12.8907M16.447 20.4125C16.2993 20.5225 16.1049 20.3418 16.2315 20.2125C18.4174 17.978 20.2125 14.4336 4.37731 21.6435C4.28008 21.6875 4.18376 21.5866 4.24706 21.5068C5.1194 20.2602 5.89818 18.2495 6.25042 15.4004C6.25409 15.3655 6.27702 15.3353 6.31188 15.3215C16.2351 11.334 27.4426 11.4817 16.4461 20.4134M3.20135 2.58217C3.11053 2.53631 3.14906 2.41064 3.2518 2.41156C5.99816 2.41981 14.2675 2.21434 18.5302 7.64654C18.588 7.73918 18.455 7.83458 18.3706 7.7612C17.0845 6.64119 13.6025 4.74515 5.57805 6.40544C5.52209 6.4192 5.4643 6.38801 5.45054 6.33665C4.81211 4.29384 3.99939 3.19034 3.20135 2.58217ZM20.8372 0H2.80599C1.25577 0 0 1.27503 0 2.84819V21.1518C0 22.725 1.25577 24 2.80599 24H20.8372C22.3865 24 23.6432 22.725 23.6432 21.1518V2.84819C23.6432 1.27503 22.3865 0 20.8372 0Z" fill="#00A1FC"/>
</svg>
