<svg width="427" height="234" viewBox="0 0 427 234" fill="none" xmlns="http://www.w3.org/2000/svg">
<g clip-path="url(#clip0_8_51)">
<path d="M23.3204 211.922C14.2213 219.706 12.3327 232.473 12.3327 232.473C12.3327 232.473 25.1967 232.619 34.2958 224.835C43.3949 217.051 45.2835 204.285 45.2835 204.285C45.2835 204.285 32.4195 204.138 23.3204 211.922Z" fill="#F2F2F2"/>
<path d="M27.525 215.019C23.6492 226.368 12.506 232.818 12.506 232.818C12.506 232.818 7.6469 220.868 11.5228 209.519C15.3987 198.17 26.5418 191.72 26.5418 191.72C26.5418 191.72 31.4009 203.67 27.525 215.019Z" fill="#F2F2F2"/>
<path d="M122.502 48.2919C120.443 45.6156 117.533 43.1392 117.349 39.8366C117.18 36.8076 119.431 33.8002 118.482 30.9023C117.752 28.6741 115.343 27.3297 112.99 26.6177C108.484 25.2742 103.662 25.4604 99.2726 27.1475L99.5109 26.9789C96.8318 26.0215 93.7002 27.0099 91.5924 28.8406C89.4844 30.6712 88.2317 33.2087 87.2597 35.7515C86.2875 38.2943 85.5344 40.9302 84.1838 43.3141C82.833 45.698 80.765 47.866 78.0365 48.6899C78.9499 50.5178 81.8054 51.1449 83.4801 49.8854C83.9079 49.5368 84.2925 49.1379 84.6255 48.6974C85.7424 47.3348 86.8594 45.9722 87.9764 44.6096C89.1257 46.6603 87.4087 49.4906 88.8214 51.3891C89.5499 52.3682 90.8803 52.74 92.1159 53.0066C101.773 55.0739 111.792 54.7011 121.27 51.9218C122.032 51.6966 122.872 51.3864 123.188 50.6946C123.553 49.8961 123.043 48.9957 122.502 48.2919Z" fill="#2F2E41"/>
<path d="M149.885 58.7364C149.825 59.0024 149.785 59.2728 149.767 59.545L128.659 71.7618L123.528 68.7986L118.059 75.9824L126.633 82.1137C127.326 82.6091 128.16 82.8656 129.011 82.8448C129.861 82.824 130.682 82.527 131.35 81.9984L153.116 64.7711C154.098 65.1359 155.168 65.192 156.183 64.932C157.198 64.6719 158.11 64.1081 158.798 63.3154C159.485 62.5227 159.916 61.5388 160.033 60.4945C160.149 59.4502 159.946 58.395 159.451 57.4693C158.955 56.5435 158.19 55.7911 157.258 55.3121C156.326 54.8331 155.27 54.6503 154.232 54.7878C153.193 54.9254 152.221 55.3769 151.445 56.0822C150.668 56.7876 150.124 57.7133 149.885 58.7364Z" fill="#FFB7B7"/>
<path d="M127.953 72.3405L121.131 81.2111C120.937 81.4635 120.691 81.6709 120.41 81.8193C120.128 81.9677 119.819 82.0535 119.501 82.071C119.184 82.0884 118.867 82.037 118.571 81.9203C118.275 81.8037 118.008 81.6244 117.788 81.3948L110.065 73.3489C108.781 72.3458 107.947 70.8729 107.745 69.2534C107.543 67.6339 107.99 66.0003 108.988 64.711C109.985 63.4218 111.452 62.5823 113.066 62.3769C114.68 62.1716 116.309 62.617 117.596 63.6155L127.282 69.0494C127.56 69.2051 127.8 69.4189 127.988 69.6763C128.175 69.9336 128.305 70.2285 128.369 70.5408C128.433 70.8532 128.428 71.1756 128.357 71.4861C128.285 71.7967 128.147 72.0881 127.953 72.3405Z" fill="black"/>
<path d="M118.564 226.9L124.589 226.899L127.454 203.587L118.563 203.588L118.564 226.9Z" fill="#FFB7B7"/>
<path d="M117.027 224.926L128.891 224.926H128.892C130.897 224.926 132.82 225.725 134.238 227.148C135.656 228.57 136.452 230.499 136.452 232.511V232.757L117.028 232.758L117.027 224.926Z" fill="#2F2E41"/>
<path d="M77.2883 226.9L83.3126 226.899L86.1783 203.587L77.2873 203.588L77.2883 226.9Z" fill="#FFB7B7"/>
<path d="M75.7515 224.926L87.6154 224.926H87.6159C89.621 224.926 91.544 225.725 92.9619 227.148C94.3797 228.57 95.1763 230.499 95.1765 232.511V232.757L75.7518 232.758L75.7515 224.926Z" fill="#2F2E41"/>
<path d="M114.946 44.9964C115.574 39.2622 111.449 34.1034 105.733 33.474C100.018 32.8445 94.8755 36.9827 94.248 42.7169C93.6206 48.4511 97.7455 53.6099 103.461 54.2393C109.177 54.8688 114.319 50.7306 114.946 44.9964Z" fill="#FFB7B7"/>
<path d="M110.689 59.515L116.823 62.5634C116.823 62.5634 123.676 74.5116 119.745 85.85C117.836 91.355 123.21 108.903 123.21 108.903C123.21 108.903 131.538 188.389 131.564 212.92C121.219 214.516 111.391 216.488 110.9 211.558C110.408 206.629 105.029 148.341 105.029 148.341C105.029 148.341 97.6324 213.037 91.7358 214.023C85.8393 215.009 74.0461 213.53 74.0461 213.53C74.0461 213.53 83.4087 118.762 89.7966 112.847L90.7794 107.917L90.7531 63.6662L98.1128 60.1426L110.689 59.515Z" fill="#2F2E41"/>
<path d="M88.7474 126.693C89.4261 126.324 90.0161 125.811 90.4757 125.189C90.9353 124.567 91.2534 123.852 91.4076 123.093C91.5618 122.334 91.5483 121.551 91.3681 120.798C91.1879 120.045 90.8454 119.341 90.3646 118.736L97.4978 71.0347L88.1784 70.5859L82.6179 118.09C81.6573 118.967 81.051 120.168 80.9138 121.464C80.7767 122.76 81.1182 124.062 81.8738 125.122C82.6293 126.183 83.7463 126.928 85.0132 127.218C86.28 127.507 87.6087 127.32 88.7474 126.693Z" fill="#FFB7B7"/>
<path d="M97.2954 82.9868L86.1497 82.2809C85.8326 82.2608 85.5235 82.1724 85.2435 82.0216C84.9635 81.8709 84.7192 81.6614 84.5272 81.4074C84.3351 81.1534 84.2 80.8608 84.1308 80.5497C84.0617 80.2386 84.0602 79.9161 84.1264 79.6043L86.4488 68.6799C86.5601 67.0525 87.3103 65.5358 88.5347 64.4624C89.7591 63.3891 91.3578 62.8467 92.9803 62.9543C94.6027 63.0618 96.1164 63.8105 97.1894 65.0362C98.2624 66.2618 98.8071 67.8643 98.704 69.4923L99.6381 80.5868C99.6648 80.9045 99.6229 81.2242 99.5153 81.5241C99.4076 81.8241 99.2369 82.0973 99.0145 82.325C98.7922 82.5528 98.5236 82.7298 98.2269 82.844C97.9302 82.9582 97.6125 83.0069 97.2954 82.9868Z" fill="black"/>
<path d="M405.333 37.754H158.86C157.06 37.754 155.335 38.471 154.063 39.7474C152.79 41.0238 152.076 42.7549 152.076 44.56V182.336C152.076 184.141 152.79 185.872 154.063 187.148C155.335 188.425 157.06 189.142 158.86 189.142H405.333C407.132 189.142 408.858 188.425 410.13 187.148C411.402 185.872 412.117 184.141 412.117 182.336V44.56C412.117 42.7549 411.402 41.0238 410.13 39.7474C408.858 38.471 407.132 37.754 405.333 37.754Z" fill="#3F3D56"/>
<path d="M403.022 49.782H161.171V186.653H403.022V49.782Z" fill="white"/>
<path d="M281.89 46.0491C283.259 46.0491 284.37 44.935 284.37 43.5606C284.37 42.1862 283.259 41.072 281.89 41.072C280.52 41.072 279.409 42.1862 279.409 43.5606C279.409 44.935 280.52 46.0491 281.89 46.0491Z" fill="white"/>
<path d="M333.856 186.653H161.171V49.782L333.856 186.653Z" fill="#F2F2F2"/>
<path d="M418.907 184.164H395.304V182.458C395.304 182.369 395.269 182.283 395.206 182.219C395.142 182.156 395.057 182.12 394.967 182.12H386.875C386.83 182.12 386.787 182.129 386.746 182.146C386.705 182.163 386.668 182.188 386.636 182.219C386.605 182.251 386.58 182.288 386.563 182.329C386.546 182.37 386.537 182.414 386.537 182.458V184.164H381.48V182.458C381.48 182.414 381.471 182.37 381.454 182.329C381.437 182.288 381.412 182.251 381.381 182.219C381.35 182.188 381.313 182.163 381.272 182.146C381.231 182.129 381.187 182.12 381.143 182.12H373.05C373.006 182.12 372.962 182.129 372.921 182.146C372.88 182.163 372.843 182.188 372.812 182.219C372.78 182.251 372.756 182.288 372.739 182.329C372.722 182.37 372.713 182.414 372.713 182.458V184.164H367.655V182.458C367.655 182.414 367.646 182.37 367.629 182.329C367.613 182.288 367.588 182.251 367.556 182.219C367.525 182.188 367.488 182.163 367.447 182.146C367.406 182.129 367.362 182.12 367.318 182.12H359.225C359.181 182.12 359.137 182.129 359.096 182.146C359.055 182.163 359.018 182.188 358.987 182.219C358.956 182.251 358.931 182.288 358.914 182.329C358.897 182.37 358.888 182.414 358.888 182.458V184.164H353.83V182.458C353.83 182.414 353.822 182.37 353.805 182.329C353.788 182.288 353.763 182.251 353.732 182.219C353.7 182.188 353.663 182.163 353.622 182.146C353.581 182.129 353.538 182.12 353.493 182.12H345.401C345.357 182.12 345.313 182.129 345.272 182.146C345.231 182.163 345.194 182.188 345.162 182.219C345.131 182.251 345.106 182.288 345.089 182.329C345.072 182.37 345.064 182.414 345.064 182.458V184.164H340.006V182.458C340.006 182.414 339.997 182.37 339.98 182.329C339.963 182.288 339.938 182.251 339.907 182.219C339.876 182.188 339.839 182.163 339.798 182.146C339.757 182.129 339.713 182.12 339.669 182.12H331.576C331.532 182.12 331.488 182.129 331.447 182.146C331.406 182.163 331.369 182.188 331.338 182.219C331.306 182.251 331.282 182.288 331.265 182.329C331.248 182.37 331.239 182.414 331.239 182.458V184.164H326.181V182.458C326.181 182.414 326.172 182.37 326.155 182.329C326.139 182.288 326.114 182.251 326.082 182.219C326.051 182.188 326.014 182.163 325.973 182.146C325.932 182.129 325.888 182.12 325.844 182.12H317.751C317.707 182.12 317.663 182.129 317.622 182.146C317.582 182.163 317.544 182.188 317.513 182.219C317.482 182.251 317.457 182.288 317.44 182.329C317.423 182.37 317.414 182.414 317.414 182.458V184.164H312.357V182.458C312.357 182.414 312.348 182.37 312.331 182.329C312.314 182.288 312.289 182.251 312.258 182.219C312.226 182.188 312.189 182.163 312.148 182.146C312.107 182.129 312.064 182.12 312.019 182.12H248.628C248.584 182.12 248.54 182.129 248.499 182.146C248.458 182.163 248.421 182.188 248.39 182.219C248.358 182.251 248.334 182.288 248.317 182.329C248.3 182.37 248.291 182.414 248.291 182.458V184.164H243.233V182.458C243.233 182.414 243.225 182.37 243.208 182.329C243.191 182.288 243.166 182.251 243.134 182.219C243.103 182.188 243.066 182.163 243.025 182.146C242.984 182.129 242.94 182.12 242.896 182.12H234.804C234.759 182.12 234.715 182.129 234.675 182.146C234.634 182.163 234.596 182.188 234.565 182.219C234.534 182.251 234.509 182.288 234.492 182.329C234.475 182.37 234.466 182.414 234.466 182.458V184.164H229.409V182.458C229.409 182.414 229.4 182.37 229.383 182.329C229.366 182.288 229.341 182.251 229.31 182.219C229.279 182.188 229.241 182.163 229.2 182.146C229.16 182.129 229.116 182.12 229.071 182.12H220.979C220.935 182.12 220.891 182.129 220.85 182.146C220.809 182.163 220.772 182.188 220.74 182.219C220.709 182.251 220.684 182.288 220.667 182.329C220.65 182.37 220.642 182.414 220.642 182.458V184.164H215.584V182.458C215.584 182.414 215.575 182.37 215.558 182.329C215.541 182.288 215.516 182.251 215.485 182.219C215.454 182.188 215.417 182.163 215.376 182.146C215.335 182.129 215.291 182.12 215.247 182.12H207.154C207.11 182.12 207.066 182.129 207.025 182.146C206.984 182.163 206.947 182.188 206.916 182.219C206.885 182.251 206.86 182.288 206.843 182.329C206.826 182.37 206.817 182.414 206.817 182.458V184.164H201.759V182.458C201.759 182.414 201.751 182.37 201.734 182.329C201.717 182.288 201.692 182.251 201.661 182.219C201.629 182.188 201.592 182.163 201.551 182.146C201.51 182.129 201.466 182.12 201.422 182.12H193.33C193.285 182.12 193.241 182.129 193.201 182.146C193.16 182.163 193.123 182.188 193.091 182.219C193.06 182.251 193.035 182.288 193.018 182.329C193.001 182.37 192.992 182.414 192.992 182.458V184.164H187.935V182.458C187.935 182.414 187.926 182.37 187.909 182.329C187.892 182.288 187.867 182.251 187.836 182.219C187.805 182.188 187.767 182.163 187.726 182.146C187.686 182.129 187.642 182.12 187.597 182.12H179.505C179.416 182.12 179.33 182.156 179.267 182.219C179.203 182.283 179.168 182.369 179.168 182.458V184.164H174.11V182.458C174.11 182.414 174.101 182.37 174.084 182.329C174.067 182.288 174.043 182.251 174.011 182.219C173.98 182.188 173.943 182.163 173.902 182.146C173.861 182.129 173.817 182.12 173.773 182.12H165.68C165.591 182.12 165.505 182.156 165.442 182.219C165.379 182.283 165.343 182.369 165.343 182.458V184.164H149.833C148.77 184.164 147.717 184.374 146.736 184.782C145.754 185.19 144.862 185.789 144.11 186.542C143.359 187.296 142.763 188.191 142.356 189.176C141.949 190.161 141.74 191.217 141.74 192.283V195.954C141.74 198.108 142.593 200.173 144.11 201.695C145.628 203.218 147.686 204.073 149.833 204.073H418.907C421.054 204.073 423.112 203.218 424.63 201.695C426.147 200.173 427 198.108 427 195.954V192.283C427 191.217 426.791 190.161 426.384 189.176C425.977 188.191 425.381 187.296 424.63 186.542C423.878 185.789 422.986 185.19 422.004 184.782C421.023 184.374 419.97 184.164 418.907 184.164Z" fill="#3F3D56"/>
<path d="M286.748 168.706C286.668 168.898 286.577 169.087 286.476 169.27C285.949 170.246 285.203 171.088 284.298 171.728C283.226 172.485 281.968 172.932 280.66 173.02C279.352 173.108 278.045 172.835 276.882 172.229C275.719 171.623 274.744 170.709 274.063 169.585C273.383 168.461 273.023 167.171 273.023 165.856V164.698H274.003C277.811 167.167 282.216 168.553 286.748 168.706Z" fill="#3F3D56"/>
<path d="M300.735 165.037V165.856C300.736 167.452 300.206 169.002 299.231 170.262C298.255 171.522 296.889 172.42 295.348 172.814C293.807 173.208 292.179 173.076 290.721 172.438C289.264 171.8 288.059 170.694 287.299 169.293C287.194 169.105 287.099 168.912 287.015 168.715C287.224 168.72 287.43 168.723 287.64 168.723C292.26 168.729 296.792 167.453 300.735 165.037Z" fill="#3F3D56"/>
<path d="M310.376 78.3784C310.161 78.3468 309.944 78.3266 309.726 78.3123C312.201 84.0351 312.373 90.4969 310.205 96.3438C310.422 96.318 310.637 96.2835 310.852 96.2432C312.951 95.8352 314.838 94.6932 316.176 93.0204C317.514 91.3476 318.218 89.2527 318.161 87.1085C318.103 84.9643 317.29 82.91 315.864 81.3113C314.439 79.7127 312.494 78.6733 310.376 78.3784Z" fill="#3F3D56"/>
<path d="M265.554 78.3123C265.336 78.3266 265.118 78.3468 264.903 78.3784C262.785 78.6734 260.841 79.7127 259.415 81.3114C257.99 82.9101 257.176 84.9643 257.119 87.1085C257.062 89.2527 257.765 91.3476 259.103 93.0204C260.442 94.6931 262.328 95.8352 264.427 96.2432C264.642 96.2835 264.857 96.318 265.075 96.3438C262.907 90.4969 263.079 84.0351 265.554 78.3123Z" fill="#3F3D56"/>
<path d="M310.377 78.3784C308.015 72.7201 303.642 68.1444 298.106 65.5401C292.57 62.9358 286.267 62.4889 280.421 64.2863C274.575 66.0837 269.604 69.9969 266.473 75.2658C263.342 80.5347 262.276 86.7831 263.48 92.797C264.684 98.8109 268.074 104.161 272.99 107.808C277.907 111.455 283.999 113.138 290.083 112.531C296.167 111.923 301.809 109.069 305.913 104.521C310.017 99.974 312.289 94.0588 312.288 87.9247C312.287 84.647 311.637 81.4021 310.377 78.3784ZM310.205 96.3438C308.108 101.998 303.978 106.66 298.627 109.412C293.277 112.164 287.093 112.807 281.293 111.215C275.493 109.623 270.498 105.91 267.29 100.808C264.081 95.7062 262.893 89.5841 263.958 83.6471C265.023 77.71 268.265 72.3879 273.045 68.7283C277.825 65.0687 283.797 63.3367 289.787 63.8732C295.776 64.4096 301.348 67.1757 305.406 71.6269C309.465 76.0782 311.715 81.8922 311.715 87.9247C311.714 90.7988 311.203 93.6497 310.205 96.3438Z" fill="#3F3D56"/>
<path d="M300.251 82.3176H275.029C273.699 82.3176 272.423 82.8478 271.482 83.7914C270.542 84.7351 270.013 86.015 270.013 87.3496C270.013 88.6841 270.542 89.964 271.482 90.9077C272.423 91.8513 273.699 92.3815 275.029 92.3815H300.251C301.581 92.3815 302.857 91.8513 303.797 90.9077C304.738 89.964 305.266 88.6841 305.266 87.3496C305.266 86.015 304.738 84.7351 303.797 83.7914C302.857 82.8478 301.581 82.3176 300.251 82.3176Z" fill="#3F3D56"/>
<path d="M310.205 130.895C310.113 130.725 310.018 130.558 309.921 130.394C309.918 130.388 309.915 130.386 309.912 130.38C307.657 126.507 304.437 123.289 300.568 121.041C296.699 118.794 292.313 117.595 287.843 117.561C283.372 117.527 278.969 118.66 275.067 120.849C271.164 123.037 267.896 126.206 265.583 130.045C263.27 133.883 261.991 138.259 261.873 142.743C261.754 147.226 262.8 151.664 264.907 155.62C267.014 159.576 270.111 162.914 273.892 165.307C277.673 167.7 282.01 169.066 286.476 169.27C286.748 169.284 287.024 169.293 287.299 169.293C287.413 169.298 287.525 169.298 287.64 169.298C292.247 169.305 296.772 168.064 300.735 165.707C305.04 163.151 308.517 159.401 310.749 154.91C310.752 154.904 310.755 154.901 310.758 154.895C310.844 154.723 310.927 154.548 311.01 154.369C312.734 150.671 313.559 146.615 313.42 142.535C313.28 138.454 312.178 134.465 310.205 130.895ZM310.451 154.211C310.368 154.389 310.282 154.565 310.193 154.737C308.061 158.989 304.785 162.557 300.735 165.037C296.792 167.453 292.26 168.729 287.64 168.723C287.43 168.723 287.224 168.72 287.015 168.715C286.926 168.715 286.837 168.712 286.748 168.706C282.372 168.553 278.111 167.259 274.385 164.952C270.659 162.645 267.595 159.405 265.496 155.549C263.397 151.694 262.334 147.357 262.413 142.965C262.491 138.573 263.708 134.277 265.944 130.499C268.18 126.722 271.357 123.594 275.164 121.423C278.97 119.252 283.275 118.112 287.653 118.116C292.032 118.12 296.334 119.268 300.137 121.447C303.939 123.625 307.11 126.759 309.339 130.541C309.342 130.547 309.345 130.549 309.348 130.555C309.448 130.719 309.545 130.886 309.637 131.053C311.604 134.568 312.704 138.504 312.846 142.533C312.987 146.561 312.166 150.566 310.451 154.211Z" fill="#3F3D56"/>
<path d="M307.465 131.659C306.962 131.3 306.362 131.107 305.745 131.104H294.473C293.687 131.104 292.934 131.417 292.379 131.974C291.824 132.532 291.512 133.287 291.512 134.075C291.512 134.863 291.824 135.618 292.379 136.175C292.934 136.732 293.687 137.045 294.473 137.045H305.745C305.946 137.046 306.147 137.025 306.344 136.985C306.54 136.942 306.732 136.882 306.917 136.804C307.399 136.595 307.817 136.262 308.128 135.838C308.44 135.415 308.633 134.915 308.689 134.392C308.745 133.868 308.661 133.34 308.445 132.859C308.23 132.379 307.892 131.965 307.465 131.659Z" fill="#3F3D56"/>
<path d="M295.223 135.583C296.053 135.583 296.726 134.907 296.726 134.075C296.726 133.242 296.053 132.567 295.223 132.567C294.393 132.567 293.72 133.242 293.72 134.075C293.72 134.907 294.393 135.583 295.223 135.583Z" fill="#F1F1F1"/>
<path d="M300.108 135.583C300.938 135.583 301.611 134.907 301.611 134.075C301.611 133.242 300.938 132.567 300.108 132.567C299.278 132.567 298.605 133.242 298.605 134.075C298.605 134.907 299.278 135.583 300.108 135.583Z" fill="#F1F1F1"/>
<path d="M304.993 135.583C305.823 135.583 306.496 134.907 306.496 134.075C306.496 133.242 305.823 132.567 304.993 132.567C304.163 132.567 303.49 133.242 303.49 134.075C303.49 134.907 304.163 135.583 304.993 135.583Z" fill="black"/>
<path d="M361.605 84.3741C357.696 86.7259 350.732 89.6729 343.615 86.6444L339.015 84.6866L348.234 74.3187C340.877 66.181 336.807 55.5849 336.819 44.5988C336.83 33.6128 340.921 23.0251 348.294 14.9025C355.668 6.77992 365.793 1.70536 376.695 0.669351C387.597 -0.366658 398.492 2.71024 407.255 9.29946C416.017 15.8887 422.017 25.5173 424.084 36.3059C426.152 47.0945 424.137 58.2687 418.434 67.6475C412.732 77.0262 403.75 83.9364 393.242 87.0292C382.734 90.1219 371.455 89.1753 361.605 84.3741Z" fill="white"/>
<path d="M361.629 84.9329C357.873 87.1452 350.718 90.2027 343.423 87.0981L338.192 84.8717L347.574 74.32C341.737 67.732 337.972 59.5583 336.756 50.8283C335.539 42.0982 336.925 33.2023 340.738 25.2607C344.551 17.3191 350.621 10.687 358.184 6.19971C365.747 1.71242 374.464 -0.429436 383.238 0.0438813C392.011 0.517198 400.45 3.58452 407.489 8.85956C414.529 14.1346 419.855 21.3815 422.797 29.6875C425.739 37.9935 426.166 46.9873 424.023 55.5361C421.881 64.0849 417.265 71.8065 410.756 77.7284C404.22 83.7118 396.048 87.5955 387.293 88.8794C378.537 90.1634 369.599 88.7889 361.629 84.9329ZM413.097 15.3006C409.256 11.0501 404.619 7.60033 399.449 5.14823C394.279 2.69614 388.679 1.28978 382.967 1.00946C377.256 0.729143 371.545 1.58037 366.162 3.51452C360.778 5.44867 355.827 8.42785 351.591 12.2819C347.355 16.136 343.918 20.7894 341.475 25.9765C339.032 31.1635 337.632 36.7826 337.354 42.5127C337.076 48.2428 337.926 53.9717 339.855 59.3722C341.784 64.7727 344.755 69.7391 348.598 73.9875L348.895 74.3161L339.838 84.5015L343.807 86.1906C350.852 89.1889 357.824 86.0743 361.353 83.9513L361.581 83.8138L361.82 83.9306C370.916 88.3647 381.267 89.4836 391.096 87.0952C400.925 84.7067 409.619 78.96 415.685 70.8416C421.75 62.7231 424.81 52.7395 424.337 42.6046C423.865 32.4697 419.891 22.8159 413.097 15.3006Z" fill="black"/>
<path opacity="0.1" d="M418.017 44.3688C418.016 34.2102 414.224 24.4201 407.388 16.9263C400.552 9.43244 391.167 4.77809 381.081 3.87981C382.261 3.77609 383.455 3.71997 384.662 3.71997C395.403 3.72647 405.703 8.01197 413.296 15.6344C420.889 23.2568 425.155 33.5923 425.155 44.3688C425.155 55.1452 420.889 65.4807 413.296 73.1031C405.703 80.7256 395.403 85.0111 384.662 85.0176C383.456 85.0176 382.265 84.9607 381.086 84.8572C391.171 83.9576 400.555 79.3027 407.39 71.8092C414.225 64.3156 418.016 54.5263 418.017 44.3688Z" fill="black"/>
<path d="M386.565 36.2628H357.613V38.9601H386.565V36.2628Z" fill="#0046C0"/>
<path d="M408.074 45.5938H357.613V48.2911H408.074V45.5938Z" fill="#0046C0"/>
<path d="M408.024 54.9247H357.613V57.622H408.024V54.9247Z" fill="#0046C0"/>
<path d="M187.707 233.272H0.491381C0.361058 233.272 0.236073 233.22 0.143922 233.128C0.0517699 233.035 0 232.91 0 232.779C0 232.649 0.0517699 232.523 0.143922 232.431C0.236073 232.338 0.361058 232.286 0.491381 232.286H187.707C187.838 232.286 187.963 232.338 188.055 232.431C188.147 232.523 188.199 232.649 188.199 232.779C188.199 232.91 188.147 233.035 188.055 233.128C187.963 233.22 187.838 233.272 187.707 233.272Z" fill="#CBCBCB"/>
<path d="M115.509 37.067C115.103 35.2206 113.786 33.6908 112.268 32.5705C109.765 30.7236 106.696 29.8157 103.595 30.0049C100.494 30.1941 97.5577 31.4683 95.2967 33.6058C94.0334 34.7253 93.1226 36.1898 92.6757 37.8203C92.4625 38.6353 92.4512 39.4902 92.6426 40.3106C92.834 41.1309 93.2223 41.8919 93.7739 42.5273L93.9819 42.658C93.7933 41.8555 94.4147 41.0535 95.1571 40.6994C95.9291 40.4152 96.7351 40.2339 97.5542 40.1602C98.7936 39.9252 99.9682 39.4261 100.999 38.6965C102.029 37.967 102.892 37.024 103.528 35.9313C103.999 37.2762 104.752 38.5042 105.736 39.5328C106.72 40.5614 107.912 41.3667 109.231 41.8946C110.607 42.4344 114.387 43.1768 115.697 42.4914C117.368 41.6172 115.915 38.9133 115.509 37.067Z" fill="#2F2E41"/>
</g>
<defs>
<clipPath id="clip0_8_51">
<rect width="427" height="234" fill="white"/>
</clipPath>
</defs>
</svg>
