<svg width="143" height="25" viewBox="0 0 143 25" fill="none" xmlns="http://www.w3.org/2000/svg">
<path d="M20.9931 13.3898C18.8815 10.8021 11.9193 12.156 6.49442 13.8888C6.42562 13.9126 6.35499 13.8658 6.35683 13.7998C6.36508 13.5255 6.36967 13.2494 6.36967 12.9697C6.36967 11.4506 6.24492 10.1435 6.02293 8.85652C6.01468 8.81066 6.04495 8.76754 6.09448 8.7547C10.5846 7.11642 19.6291 6.61008 21.1766 13.3155C21.2023 13.4155 21.0555 13.4732 20.9913 13.3907M16.447 20.9125C16.2993 21.0225 16.1049 20.8418 16.2315 20.7125C18.4174 18.478 20.2125 14.9336 4.37731 22.1435C4.28008 22.1875 4.18376 22.0866 4.24706 22.0068C5.1194 20.7602 5.89818 18.7495 6.25042 15.9004C6.25409 15.8655 6.27702 15.8353 6.31188 15.8215C16.2351 11.834 27.4426 11.9817 16.4461 20.9134M3.20135 3.08217C3.11053 3.03631 3.14906 2.91064 3.2518 2.91156C5.99816 2.91981 14.2675 2.71434 18.5302 8.14654C18.588 8.23918 18.455 8.33458 18.3706 8.2612C17.0845 7.14119 13.6025 5.24515 5.57805 6.90544C5.52209 6.9192 5.4643 6.88801 5.45054 6.83665C4.81211 4.79384 3.99939 3.69034 3.20135 3.08217ZM20.8372 0.5H2.80599C1.25577 0.5 0 1.77503 0 3.34819V21.6518C0 23.225 1.25577 24.5 2.80599 24.5H20.8372C22.3865 24.5 23.6432 23.225 23.6432 21.6518V3.34819C23.6432 1.77503 22.3865 0.5 20.8372 0.5Z" fill="#00A1FC"/>
<path d="M27.6562 5.09473H33.4563C36.4696 5.09473 38.2656 6.95224 38.2656 9.57386C38.2656 12.1955 36.4696 14.053 33.4563 14.053H30.4017V19.543H27.6562V5.09473ZM33.3324 11.7616C34.9423 11.7616 35.6027 10.7296 35.6027 9.57386C35.6027 8.41807 34.9423 7.38612 33.3324 7.38612H30.4017V11.7616H33.3324ZM43.7556 8.97487C46.9139 8.97487 49.1841 11.2452 49.1841 14.341C49.1841 17.4369 46.9139 19.7072 43.7556 19.7072C40.5974 19.7072 38.3069 17.4369 38.3069 14.341C38.3069 11.2452 40.5772 8.97487 43.7556 8.97487ZM43.7556 17.5194C45.4691 17.5194 46.6249 16.2187 46.6249 14.341C46.6249 12.4633 45.4691 11.1626 43.7556 11.1626C42.0421 11.1626 40.8662 12.4633 40.8662 14.341C40.8662 16.2187 42.0219 17.5194 43.7556 17.5194ZM50.3399 12.855C50.3399 10.4811 51.6819 9.13998 54.055 9.13998H56.3876V11.2663H54.4476C53.4358 11.2663 52.879 11.8442 52.879 12.8559V19.543H50.3399V12.855ZM57.6673 6.00284H60.2063V9.13998H63.0958V11.2663H60.2063V15.8068C60.2063 16.8599 60.764 17.3965 61.7134 17.3965H63.0967V19.543H61.4245C59.1542 19.543 57.6682 18.2221 57.6682 15.9105L57.6673 6.00284ZM69.3077 8.97487C72.4659 8.97487 74.7362 11.2452 74.7362 14.341C74.7362 17.4369 72.4659 19.7072 69.3077 19.7072C66.1494 19.7072 63.859 17.4369 63.859 14.341C63.859 11.2452 66.1293 8.97487 69.3077 8.97487ZM69.3077 17.5194C71.0212 17.5194 72.177 16.2187 72.177 14.341C72.177 12.4633 71.0212 11.1626 69.3077 11.1626C67.5942 11.1626 66.4182 12.4633 66.4182 14.341C66.4182 16.2187 67.574 17.5194 69.3077 17.5194Z" fill="#00A1FC"/>
<path d="M77.3398 14.6924H79.9816C80.1055 16.3023 81.2411 17.3342 83.0362 17.3342C84.6461 17.3342 85.7817 16.715 85.7817 15.4354C85.7817 12.3396 77.7737 14.486 77.7737 8.99604C77.7737 6.62209 79.8789 4.92969 82.9546 4.92969C86.0303 4.92969 88.0942 6.68446 88.218 9.38772H85.6175C85.4936 8.12828 84.5442 7.28254 82.9546 7.28254C81.3649 7.28254 80.5192 7.98427 80.5192 8.99604C80.5192 12.1543 88.5271 9.76014 88.5271 15.3941C88.5271 18.0772 86.2568 19.7082 83.0371 19.7082C79.8174 19.7082 77.5049 17.7681 77.3398 14.6924Z" fill="black"/>
<path d="M94.4919 8.97485C97.9804 8.97485 99.5489 11.5139 99.5489 13.9906C99.5489 14.3419 99.5278 14.651 99.5077 14.8574H91.8299C92.0152 16.5297 93.0894 17.6029 94.6992 17.6029C95.9999 17.6029 96.8457 17.0663 97.1144 16.0756H99.5911C99.1994 18.2844 97.2585 19.7081 94.6992 19.7081C91.2933 19.7081 89.3945 17.025 89.3945 14.3006C89.3945 11.5763 91.0869 8.97577 94.4928 8.97577L94.4919 8.97485ZM97.0099 13.1852C96.9071 11.8643 95.9981 10.8736 94.4919 10.8736C93.0674 10.8736 92.1592 11.6167 91.8914 13.1852H97.0099Z" fill="black"/>
<path d="M100.578 13.9695C100.578 11.0589 102.415 8.97485 105.49 8.97485C106.791 8.97485 107.947 9.51147 108.525 10.3783V9.13997H111.064V19.3769C111.064 22.0398 108.979 23.7524 105.842 23.7524C102.704 23.7524 100.826 22.1426 100.826 19.6861H103.344C103.385 20.8831 104.334 21.6261 105.842 21.6261C107.451 21.6261 108.546 20.718 108.546 19.376V17.5185C107.968 18.4477 106.832 18.9843 105.532 18.9843C102.437 18.9843 100.579 16.8791 100.579 13.9686L100.578 13.9695ZM105.883 16.8177C107.555 16.8177 108.711 15.6408 108.711 13.9695C108.711 12.2982 107.555 11.1415 105.883 11.1415C104.211 11.1415 103.096 12.2973 103.096 13.9695C103.096 15.6417 104.232 16.8177 105.883 16.8177Z" fill="black"/>
<path d="M122.539 19.5421H120V17.9322C119.422 19.0679 118.245 19.7072 116.759 19.7072C114.406 19.7072 112.879 18.0148 112.879 15.5794V9.14001H115.418V15.0428C115.418 16.4673 116.285 17.458 117.586 17.458C119.01 17.458 120.001 16.3435 120.001 14.8162V9.14001H122.54L122.539 19.5421Z" fill="black"/>
<path d="M127.043 14.63V19.5421H124.504V9.14001H127.043V10.9773C127.558 9.65645 128.364 9.14001 129.706 9.14001H130.924V11.2663H129.293C127.683 11.2663 127.043 12.6487 127.043 14.63Z" fill="black"/>
<path d="M131.125 14.341C131.125 11.2451 133.395 8.97485 136.574 8.97485C139.752 8.97485 142.002 11.2451 142.002 14.341C142.002 17.4369 139.732 19.7072 136.574 19.7072C133.415 19.7072 131.125 17.4369 131.125 14.341ZM136.574 17.5194C138.287 17.5194 139.443 16.2187 139.443 14.341C139.443 12.4633 138.287 11.1626 136.574 11.1626C134.86 11.1626 133.684 12.4633 133.684 14.341C133.684 16.2187 134.84 17.5194 136.574 17.5194Z" fill="black"/>
</svg>
